<svg fill="#000000" xmlns="http://www.w3.org/2000/svg"  viewBox="0 0 80 80" width="80px" height="80px"><path d="M 45.089844 4 C 44.699005 3.9736465 44.309723 3.9743928 43.927734 4.0019531 C 41.678717 4.1636173 39.993411 5.246108 38.886719 6.2890625 C 37.982973 7.1407591 37.527018 7.8568053 37.304688 8.234375 C 32.071247 9.1339579 28.459306 12.56091 26.179688 15.908203 C 23.665973 19.599233 22.719657 23.061859 22.619141 23.4375 C 22.272004 23.74367 21 24.93399 21 26.931641 L 21 28.425781 A 1.0001 1.0001 0 0 0 21.001953 28.488281 C 18.092617 29.56285 16 32.316264 16 35.552734 C 16 37.570395 16.817193 39.402809 18.132812 40.757812 C 17.437814 41.575832 17 42.607434 17 43.75 C 17 44.936838 17.469128 46.006754 18.212891 46.837891 C 18.067683 46.99362 17.923576 47.14197 17.744141 47.376953 C 17.243401 48.032704 16.619152 49.031869 16.068359 50.441406 C 16.051719 50.483996 15.841809 50.838262 15.550781 51.242188 C 15.259754 51.646112 14.88859 52.140816 14.519531 52.691406 C 13.781413 53.792587 13 55.11226 13 56.630859 A 1.0001 1.0001 0 0 0 13.103516 57.074219 C 13.103516 57.074219 13.801532 58.429419 15.552734 59.638672 C 16.232342 60.107959 17.083393 60.566647 18.117188 60.955078 C 18.359475 62.331226 19.161463 64.785743 21.900391 66.144531 C 22.207543 66.717565 22.810343 67.961096 24.248047 69.013672 C 24.906471 69.495719 25.740889 69.924628 26.769531 70.263672 A 1.0001 1.0001 0 0 0 26.744141 70.494141 L 26.744141 72 A 1.0001 1.0001 0 1 0 28.744141 72 L 28.744141 70.740234 C 29.709554 70.901486 30.793351 71 32.042969 71 L 32.84375 70.597656 L 33.001953 69.716797 L 32.388672 69.0625 L 32.042969 69 C 28.485042 69 26.555712 68.224779 25.429688 67.400391 C 24.303662 66.576002 23.952354 65.724948 23.552734 65.011719 L 23.382812 64.707031 L 23.058594 64.574219 C 21.234786 63.829454 20.505617 62.571672 20.205078 61.568359 C 21.438815 61.837105 22.862956 62.001953 24.5 62.001953 C 28.729752 62.001953 31.427706 61.632177 33.103516 61.246094 C 33.94142 61.053052 34.522878 60.855284 34.912109 60.695312 C 35.301341 60.535342 35.560547 60.371094 35.560547 60.371094 A 1.0001 1.0001 0 1 0 34.439453 58.714844 C 34.439453 58.714844 34.428273 58.732304 34.152344 58.845703 C 33.876419 58.959106 33.398517 59.125417 32.654297 59.296875 C 31.165856 59.639791 28.613248 60.001953 24.5 60.001953 C 20.503097 60.001953 18.1025 58.967934 16.689453 57.992188 C 15.436736 57.127153 15.183482 56.551567 15.099609 56.392578 C 15.177289 55.652373 15.575333 54.709222 16.181641 53.804688 C 16.512707 53.310778 16.864949 52.838857 17.173828 52.410156 C 17.482707 51.981455 17.748785 51.63783 17.931641 51.169922 C 18.412848 49.938459 18.940724 49.104843 19.333984 48.589844 C 19.579431 48.268415 19.722449 48.117548 19.816406 48.027344 C 20.453514 48.321854 21.156188 48.5 21.900391 48.5 L 23.757812 48.5 C 23.757812 48.5 31.62286 48.684803 36.21875 51.363281 C 36.485097 51.518729 36.736628 51.67595 36.974609 51.833984 A 1.0001 1.0001 0 0 0 36.976562 51.833984 A 1.0001 1.0001 0 0 0 36.980469 51.837891 C 40.686667 54.293993 41.653164 57.270805 41.916016 59.138672 C 42.069164 60.226926 41.974609 60.859375 41.974609 60.859375 A 1.0001699 1.0001699 0 1 0 43.955078 61.140625 C 43.955078 61.140625 44.083332 60.189074 43.896484 58.861328 C 43.580982 56.619315 42.300503 53.085374 38.261719 50.318359 A 1.0001 1.0001 0 0 0 38.082031 50.166016 C 38.082031 50.166016 38.080078 50.166016 38.080078 50.166016 C 37.806477 49.98437 37.521729 49.808986 37.226562 49.636719 C 31.846458 46.501204 23.78125 46.5 23.78125 46.5 L 23.775391 46.5 L 21.900391 46.5 C 20.278507 46.5 19 45.245865 19 43.75 C 19 42.254135 20.278466 41 21.900391 41 L 28.986328 41 C 30.47727 43.906231 33.508284 45.90625 37 45.90625 C 41.955498 45.90625 46 41.886687 46 36.949219 C 46 32.01175 41.955498 27.994141 37 27.994141 C 34.191511 27.994141 31.678253 29.285751 30.025391 31.302734 C 28.635417 29.309837 26.316696 28 23.689453 28 C 23.457068 28 23.227347 28.015107 23 28.035156 L 23 26.931641 C 23 25.845525 24.15625 24.695314 24.15625 24.695312 A 1.0001 1.0001 0 0 0 24.46875 24.191406 C 24.46875 24.191406 25.398486 20.609385 27.833984 17.033203 C 30.268623 13.458285 34.067529 10.002441 39.994141 10 C 39.994141 10 45.091393 10.04214 50.132812 12.029297 C 50.253099 12.07671 50.370206 12.139849 50.490234 12.189453 C 50.37681 13.313302 49.952133 14.427757 49.208984 15.386719 A 1.0009095 1.0009095 0 1 0 50.791016 16.613281 C 51.61268 15.553002 52.140194 14.33046 52.378906 13.068359 C 53.485767 13.657226 54.548779 14.350778 55.505859 15.177734 C 55.210142 15.936532 54.79408 16.678716 54.228516 17.363281 A 1.0002993 1.0002993 0 1 0 55.771484 18.636719 C 56.2709 18.032221 56.687893 17.385457 57.023438 16.714844 C 58.812906 18.844423 60 21.619775 60 25.4375 C 60 28.4515 60.0012 31.599484 58.560547 35.554688 A 1.0001 1.0001 0 0 0 58.539062 35.617188 C 58.539062 35.617188 58.2317 36.70278 58 37.519531 L 58 34.09375 A 1.0001 1.0001 0 0 0 56.970703 33.09375 A 1.0001 1.0001 0 0 0 56.207031 33.484375 L 50.207031 41.273438 A 1.0006642 1.0006642 0 1 0 51.792969 42.494141 L 56 37.033203 L 56 43.441406 A 1.0001 1.0001 0 0 0 56.03125 43.685547 C 55.703706 44.686807 55.376044 45.688188 55.048828 46.689453 A 1.0005836 1.0005836 0 0 0 55.003906 47.078125 C 54.210032 47.249093 53.575034 47.535859 53.128906 47.857422 C 52.444236 48.350922 52.107422 48.96875 52.107422 48.96875 A 1.0010084 1.0010084 0 1 0 53.892578 49.875 C 53.892578 49.875 53.937548 49.739469 54.296875 49.480469 C 54.656205 49.221469 55.277561 48.917969 56.412109 48.917969 C 57.556099 48.917969 58.099449 49.188181 58.441406 49.583984 C 58.783364 49.979788 59 50.669613 59 51.728516 C 59 51.837698 58.686458 52.657763 57.904297 53.289062 C 57.122136 53.920363 55.961438 54.443359 54.451172 54.443359 A 1.0001 1.0001 0 0 0 53.453125 55.492188 C 53.453125 55.492188 53.594023 58.368129 53.933594 61.890625 C 54.273165 65.413121 54.794254 69.558824 55.632812 72.294922 A 1.0002225 1.0002225 0 1 0 57.544922 71.707031 C 56.808481 69.304129 56.258507 65.170972 55.923828 61.699219 C 55.635078 58.7039 55.549519 56.895011 55.515625 56.259766 C 56.978236 56.054346 58.262493 55.570226 59.160156 54.845703 C 60.280745 53.941252 61 52.906333 61 51.728516 C 61 50.406418 60.745121 49.189837 59.955078 48.275391 C 59.284403 47.499107 58.269884 47.082935 57.0625 46.96875 C 57.434998 45.828849 57.807209 44.688788 58.179688 43.548828 L 62 38.589844 L 62 45 A 1.0001 1.0001 0 1 0 64 45 L 64 35.652344 A 1.0001 1.0001 0 0 0 62.207031 35.041016 L 59.953125 37.96875 C 60.16322 37.229795 60.460937 36.175781 60.460938 36.175781 C 61.997026 31.924092 62 28.436437 62 25.4375 C 62 21.143276 60.58909 17.80602 58.478516 15.333984 C 58.256357 15.073779 58.023093 14.829539 57.787109 14.587891 C 58.279877 12.452523 57.990974 10.252034 56.841797 8.4609375 A 1.0001 1.0001 0 0 0 56.841797 8.4589844 C 55.716869 6.705933 53.669846 5.1879484 51.072266 5.0019531 L 51.070312 5.0019531 C 50.277835 4.9454608 49.54296 5.0262132 48.873047 5.1914062 C 47.706648 4.4948195 46.392465 4.0878333 45.089844 4 z M 44.072266 5.9980469 C 44.848403 5.9420489 45.664726 6.0487675 46.449219 6.2910156 C 46.319208 6.3777241 46.169033 6.458586 46.050781 6.546875 C 44.920849 7.3905006 44.325668 8.2199178 44.197266 8.40625 C 41.745919 8.0221693 40.026338 8.0000437 40.013672 8 C 40.096622 7.9138254 40.165947 7.8307159 40.257812 7.7441406 C 41.13487 6.9175951 42.384283 6.1193827 44.072266 5.9980469 z M 50.966797 7.0039062 C 52.836808 7.1511385 54.354814 8.2889917 55.158203 9.5410156 C 55.789798 10.526196 56.058864 11.736766 55.986328 12.994141 C 54.880006 12.151265 53.692224 11.458805 52.486328 10.880859 C 52.413459 10.104167 52.235084 9.3361113 51.917969 8.6035156 L 51.917969 8.6015625 C 51.662021 8.0108235 51.338739 7.4798898 50.966797 7.0039062 z M 48.552734 7.4121094 C 49.190138 7.9344979 49.731524 8.5869929 50.082031 9.3964844 A 1.0001 1.0001 0 0 0 50.082031 9.3984375 C 50.161628 9.5821901 50.220956 9.772716 50.279297 9.9628906 C 48.965044 9.4803681 47.675026 9.1105222 46.464844 8.8378906 C 46.682247 8.6178482 46.932658 8.3824538 47.246094 8.1484375 C 47.619308 7.8697895 48.064171 7.6190277 48.552734 7.4121094 z M 37 29.994141 C 40.880502 29.994141 44 33.098687 44 36.949219 C 44 40.79975 40.880502 43.90625 37 43.90625 C 33.119498 43.90625 30 40.79975 30 36.949219 C 30 33.098687 33.119498 29.994141 37 29.994141 z M 23.689453 30 C 25.985691 30 27.931196 31.326798 28.833984 33.210938 C 28.304366 34.350389 28 35.61395 28 36.949219 C 28 37.655679 28.091625 38.340208 28.248047 39 L 21.900391 39 C 21.119237 39 20.385648 39.198908 19.724609 39.521484 C 18.662415 38.512925 18 37.114256 18 35.552734 C 18 32.486789 20.52496 30 23.689453 30 z M 23.5 35 C 22.672 35 22 35.672 22 36.5 C 22 37.328 22.672 38 23.5 38 C 24.328 38 25 37.328 25 36.5 C 25 35.672 24.328 35 23.5 35 z M 38.5 36 C 37.672 36 37 36.672 37 37.5 C 37 38.328 37.672 39 38.5 39 C 39.328 39 40 38.328 40 37.5 C 40 36.672 39.328 36 38.5 36 z M 42.041016 63.677734 L 41.240234 64.078125 L 41.082031 64.960938 L 41.693359 65.615234 L 42.041016 65.677734 L 42.841797 65.275391 L 43 64.394531 L 42.386719 63.740234 L 42.041016 63.677734 z M 39.570312 66.779297 L 38.769531 67.179688 L 38.611328 68.0625 L 39.224609 68.716797 L 39.570312 68.779297 L 40.371094 68.376953 L 40.529297 67.494141 L 39.917969 66.839844 L 39.570312 66.779297 z M 36.001953 68.517578 L 35.199219 68.919922 L 35.042969 69.800781 L 35.654297 70.455078 L 36.001953 70.517578 L 36.802734 70.117188 L 36.960938 69.234375 L 36.347656 68.580078 L 36.001953 68.517578 z"/></svg>